<svg width="25" height="24" viewBox="0 0 25 24" fill="none" xmlns="http://www.w3.org/2000/svg">
<g id="verify">
<path id="Vector" d="M11.4568 15.17C11.2568 15.17 11.0668 15.09 10.9268 14.95L8.50681 12.53C8.21681 12.24 8.21681 11.76 8.50681 11.47C8.79681 11.18 9.27681 11.18 9.56681 11.47L11.4568 13.36L15.7568 9.06003C16.0468 8.77003 16.5268 8.77003 16.8168 9.06003C17.1068 9.35003 17.1068 9.83003 16.8168 10.12L11.9868 14.95C11.8468 15.09 11.6568 15.17 11.4568 15.17Z" fill="#797979"/>
<path id="Vector_2" d="M12.6666 22.75C12.0366 22.75 11.4066 22.54 10.9166 22.12L9.33663 20.76C9.17663 20.62 8.77663 20.48 8.56663 20.48H6.84663C5.36663 20.48 4.16663 19.28 4.16663 17.8V16.09C4.16663 15.88 4.02663 15.49 3.88663 15.33L2.53663 13.74C1.71663 12.77 1.71663 11.24 2.53663 10.27L3.88663 8.68C4.02663 8.52 4.16663 8.13 4.16663 7.92V6.2C4.16663 4.72 5.36663 3.52 6.84663 3.52H8.57663C8.78663 3.52 9.18663 3.37 9.34663 3.24L10.9266 1.88C11.9066 1.04 13.4366 1.04 14.4166 1.88L15.9966 3.24C16.1566 3.38 16.5566 3.52 16.7666 3.52H18.4666C19.9466 3.52 21.1466 4.72 21.1466 6.2V7.9C21.1466 8.11 21.2966 8.51 21.4366 8.67L22.7966 10.25C23.6366 11.23 23.6366 12.76 22.7966 13.74L21.4366 15.32C21.2966 15.48 21.1466 15.88 21.1466 16.09V17.79C21.1466 19.27 19.9466 20.47 18.4666 20.47H16.7666C16.5566 20.47 16.1566 20.62 15.9966 20.75L14.4166 22.11C13.9266 22.54 13.2966 22.75 12.6666 22.75ZM6.84663 5.02C6.19663 5.02 5.66663 5.55 5.66663 6.2V7.91C5.66663 8.48 5.39663 9.21 5.02663 9.64L3.67663 11.23C3.32663 11.64 3.32663 12.35 3.67663 12.76L5.02663 14.35C5.39663 14.79 5.66663 15.51 5.66663 16.08V17.79C5.66663 18.44 6.19663 18.97 6.84663 18.97H8.57663C9.15663 18.97 9.88663 19.24 10.3266 19.62L11.9066 20.98C12.3166 21.33 13.0366 21.33 13.4466 20.98L15.0266 19.62C15.4666 19.25 16.1966 18.97 16.7766 18.97H18.4766C19.1266 18.97 19.6566 18.44 19.6566 17.79V16.09C19.6566 15.51 19.9266 14.78 20.3066 14.34L21.6666 12.76C22.0166 12.35 22.0166 11.63 21.6666 11.22L20.3066 9.64C19.9266 9.2 19.6566 8.47 19.6566 7.89V6.2C19.6566 5.55 19.1266 5.02 18.4766 5.02H16.7766C16.1966 5.02 15.4666 4.75 15.0266 4.37L13.4466 3.01C13.0366 2.66 12.3166 2.66 11.9066 3.01L10.3266 4.38C9.88663 4.75 9.14663 5.02 8.57663 5.02H6.84663Z" fill="#797979"/>
</g>
</svg>
